<!-- Generated by IcoMoon.io -->
<svg version="1.1" xmlns="http://www.w3.org/2000/svg" width="32" height="32" viewBox="0 0 32 32">
<title>DE</title>
<path fill="none" stroke="#fff" stroke-linejoin="miter" stroke-linecap="butt" stroke-miterlimit="4" stroke-width="0.9143" d="M31.543 16c0 8.584-6.959 15.543-15.543 15.543s-15.543-6.959-15.543-15.543c0-8.584 6.959-15.543 15.543-15.543s15.543 6.959 15.543 15.543z"></path>
<path fill="#fff" d="M9.502 12.434h3.109c2.469 0 4.114 1.554 4.114 3.84s-1.646 3.84-4.114 3.84h-3.109v-7.68zM12.611 19.383c2.011 0 3.383-1.28 3.383-3.109s-1.28-3.109-3.383-3.109h-2.286v6.309h2.286z"></path>
<path fill="#fff" d="M24.039 19.383v0.731h-5.394v-7.68h5.303v0.731h-4.48v2.743h3.931v0.731h-3.931v2.834h4.571z"></path>
</svg>
