<!-- Generated by IcoMoon.io -->
<svg version="1.1" xmlns="http://www.w3.org/2000/svg" width="32" height="32" viewBox="0 0 32 32">
<title>FR</title>
<path fill="none" stroke="#fff" stroke-linejoin="miter" stroke-linecap="butt" stroke-miterlimit="4" stroke-width="0.9143" d="M31.543 16c0 8.584-6.959 15.543-15.543 15.543s-15.543-6.959-15.543-15.543c0-8.584 6.959-15.543 15.543-15.543s15.543 6.959 15.543 15.543z"></path>
<path fill="#fff" d="M11.056 13.166v3.017h3.931v0.731h-3.931v3.291h-0.823v-7.68h5.303v0.731h-4.48z"></path>
<path fill="#fff" d="M22.485 20.114l-1.737-2.469c-0.183 0-0.366 0-0.64 0h-2.103v2.469h-0.823v-7.68h2.834c1.92 0 3.109 1.006 3.109 2.651 0 1.189-0.64 2.011-1.737 2.377l1.92 2.651h-0.823zM22.394 15.086c0-1.189-0.823-1.92-2.377-1.92h-2.011v3.84h2.011c1.554 0 2.377-0.731 2.377-1.92z"></path>
</svg>
